# xmcd
#
# Track frame offsets: 
#        150
#        15495
#        30962
#        62852
#        88527
#        101219
#        126918
#        143479
#        162684
#        189127
#        209696
#        236168
#        259345
#        283872
#        313720
#
# Disc length: 4521 seconds
#
# Revision: 1
# Processed by: cddbd v1.5.2PL0 Copyright (c) Steve Scherf et al.
# Submitted via: ExactAudioCopy v1.0b1
#
DISCID=da11a70f
DTITLE=Art Blakey - Big Band and Hard Drive
DYEAR=1957
DGENRE=Jazz
TTITLE0=Midriff
TTITLE1=Ain't Life Grand
TTITLE2=Tipin'
TTITLE3=Pristine
TTITLE4=El Toro Valiente
TTITLE5=The Kiss of No Return
TTITLE6=Late Date
TTITLE7=The Outer World
TTITLE8=For Minors Only
TTITLE9=Right Down Front
TTITLE10=DEO-X
TTITLE11=Sweet Sakeena
TTITLE12=For Miles and Miles
TTITLE13=Krafty
TTITLE14=Late Spring
EXTD=YEAR: 1957
EXTT0=
EXTT1=
EXTT2=
EXTT3=
EXTT4=
EXTT5=
EXTT6=
EXTT7=
EXTT8=
EXTT9=
EXTT10=
EXTT11=
EXTT12=
EXTT13=
EXTT14=
PLAYORDER=
